HIERARCHY
ROOT Hips
{
 OFFSET 0.000000 0.000000 0.000000
 CHANNELS 6 Xposition Yposition Zposition Yrotation Xrotation Zrotation
 JOINT Chest
 {
  OFFSET 0.000000 9.585900 0.002600
  CHANNELS 3 Yrotation Xrotation Zrotation
  JOINT Chest2
  {
   OFFSET 0.000000 9.601200 -0.005300
   CHANNELS 3 Yrotation Xrotation Zrotation
   JOINT Chest3
   {
    OFFSET 0.000000 9.561800 0.000000
    CHANNELS 3 Yrotation Xrotation Zrotation
    JOINT Chest4
    {
     OFFSET 0.000000 9.552100 0.000000
     CHANNELS 3 Yrotation Xrotation Zrotation
     JOINT Neck
     {
      OFFSET 0.000000 14.453000 0.000000
      CHANNELS 3 Yrotation Xrotation Zrotation
      JOINT Head
      {
       OFFSET 0.000000 8.936500 -0.011300
       CHANNELS 3 Yrotation Xrotation Zrotation
       End Site
       {
        OFFSET 0.000000 17.073600 -0.006000
       }
      }
     }
     JOINT RightCollar
     {
      OFFSET -2.921100 9.558500 0.000000
      CHANNELS 3 Yrotation Xrotation Zrotation
      JOINT RightShoulder
      {
       OFFSET -13.519700 0.000000 0.000000
       CHANNELS 3 Yrotation Xrotation Zrotation
       JOINT RightElbow
       {
        OFFSET 0.000000 -29.696600 0.000000
        CHANNELS 3 Yrotation Xrotation Zrotation
        JOINT RightWrist
        {
         OFFSET 0.000000 -24.004700 0.000000
         CHANNELS 3 Yrotation Xrotation Zrotation
         End Site
         {
          OFFSET 0.000000 -17.728500 0.000000
         }
        }
       }
      }
     }
     JOINT LeftCollar
     {
      OFFSET 2.921100 9.558500 0.000000
      CHANNELS 3 Yrotation Xrotation Zrotation
      JOINT LeftShoulder
      {
       OFFSET 13.519700 0.000000 0.000000
       CHANNELS 3 Yrotation Xrotation Zrotation
       JOINT LeftElbow
       {
        OFFSET 0.000000 -29.696600 0.000000
        CHANNELS 3 Yrotation Xrotation Zrotation
        JOINT LeftWrist
        {
         OFFSET 0.000000 -24.004700 0.000000
         CHANNELS 3 Yrotation Xrotation Zrotation
         End Site
         {
          OFFSET 0.000000 -17.728500 0.000000
         }
        }
       }
      }
     }
    }
   }
  }
 }
 JOINT RightHip
 {
  OFFSET -7.771700 -0.012900 -0.001300
  CHANNELS 3 Yrotation Xrotation Zrotation
  JOINT RightKnee
  {
   OFFSET 0.000000 -40.869800 0.001200
   CHANNELS 3 Yrotation Xrotation Zrotation
   JOINT RightAnkle
   {
    OFFSET 0.000000 -39.717900 0.002100
    CHANNELS 3 Yrotation Xrotation Zrotation
    JOINT RightToe
    {
     OFFSET 0.000000 -4.965400 11.033500
     CHANNELS 3 Yrotation Xrotation Zrotation
     End Site
     {
      OFFSET 0.000000 -1.423100 5.872300
     }
    }
   }
  }
 }
 JOINT LeftHip
 {
  OFFSET 7.771700 -0.012900 -0.001300
  CHANNELS 3 Yrotation Xrotation Zrotation
  JOINT LeftKnee
  {
   OFFSET 0.000000 -40.869800 0.001200
   CHANNELS 3 Yrotation Xrotation Zrotation
   JOINT LeftAnkle
   {
    OFFSET 0.000000 -39.717900 0.002100
    CHANNELS 3 Yrotation Xrotation Zrotation
    JOINT LeftToe
    {
     OFFSET 0.000000 -4.965400 11.033500
     CHANNELS 3 Yrotation Xrotation Zrotation
     End Site
     {
      OFFSET 0.000000 -1.423100 5.872300
     }
    }
   }
  }
 }
}
MOTION
Frames: 15
Frame Time: 0.008333
0.000000 85.388000 0.000000 0.000000 -5.767877 0.000000 0.000000 11.653817 0.000000 0.000000 -5.885947 0.000000 0.000000 -0.000000 0.000000 0.000000 -0.000000 0.000000 0.000000 12.528835 0.000000 0.000000 0.711642 0.000000 0.000000 -0.000000 0.000000 0.000000 0.000000 -90.000000 0.000000 -2.309062 0.000000 0.000000 2.309062 0.000000 0.000000 -0.000000 0.000000 0.000000 -0.000000 90.000000 0.000000 -2.309062 0.000000 0.000000 2.309062 0.000000 0.000000 8.520406 0.000000 0.000000 1.905762 0.000000 -0.000000 -4.658285 0.000000 0.000000 -0.000000 0.000000 0.000000 8.520406 0.000000 0.000000 1.905762 0.000000 -0.000000 -4.658285 0.000000 0.000000 -0.000000 0.000000
-108.639071 57.266879 -5.014613 161.394875 -8.503556 -0.101323 3.820791 6.256278 0.751922 0.159875 0.273391 -0.005286 0.280358 0.479451 -0.008767 3.505035 6.033339 0.054474 -1.648918 18.834178 -3.757900 -1.816904 -0.686785 -6.378850 -0.079355 6.145178 -0.112343 -15.630220 -18.119910 -12.037417 -127.314132 -58.758068 162.308462 -3.146905 3.488917 -18.572142 -1.105919 8.926480 1.530992 18.554400 -8.196451 2.807103 106.868062 -59.790808 -152.447154 -2.936460 3.327871 -6.848172 -15.640641 -63.608540 8.821955 -31.837908 73.670188 -32.154207 -2.136468 -7.564784 -2.480393 -0.438634 0.837282 -0.154596 6.277508 -67.009271 10.982656 42.861015 63.456337 35.022088 -18.914221 -9.736785 5.870789 -0.078302 -0.859589 0.009503
-108.658819 57.262542 -5.004173 161.452410 -8.521468 -0.096081 3.766133 6.238551 0.742595 0.154098 0.236715 0.001703 0.277785 0.479169 -0.007890 3.504463 6.037702 0.048285 -1.708811 18.880544 -3.760707 -1.885555 -0.603985 -6.405571 -0.128652 6.224732 -0.117206 -16.052287 -18.025735 -11.262770 -126.517706 -58.189721 162.133835 -3.365145 3.213072 -18.202547 -1.116716 8.983706 1.363686 18.195460 -8.121105 1.935740 105.307865 -59.725524 -151.347106 -2.736343 3.136994 -7.227820 -15.535828 -63.611309 8.713887 -31.945477 73.646962 -32.269433 -2.175767 -7.548352 -2.447534 -0.424080 0.840164 -0.138342 6.312755 -67.000345 10.899936 42.847430 63.443960 34.975845 -18.888713 -9.706020 5.904651 -0.123785 -0.873264 0.004376
-108.675150 57.259281 -4.999328 161.469311 -8.600372 -0.104363 3.748063 6.279993 0.758634 0.143163 0.200054 0.011599 0.274670 0.478793 -0.006772 3.448359 5.991113 0.073366 -1.725674 18.971156 -3.803521 -1.942988 -0.532876 -6.440005 -0.113920 6.369078 -0.151224 -16.399736 -17.952388 -10.534229 -125.727186 -57.693394 161.917516 -3.593860 2.942435 -17.871597 -1.088100 9.088549 1.152310 17.805950 -8.082860 1.128905 103.721749 -59.647108 -150.216483 -2.538764 2.954786 -7.586730 -15.440647 -63.544826 8.639086 -31.994968 73.626683 -32.343510 -2.189709 -7.524036 -2.405929 -0.434004 0.837278 -0.135635 6.359009 -66.935605 10.854310 42.810092 63.445811 34.959941 -18.911564 -9.705444 5.904972 -0.100626 -0.872212 0.009659
-108.694656 57.256393 -4.995080 161.491659 -8.694991 -0.100300 3.699687 6.246273 0.781664 0.150893 0.253839 0.000465 0.271287 0.478272 -0.005685 3.400392 5.979505 0.092038 -1.746516 19.020947 -3.837154 -1.933844 -0.482267 -6.475013 -0.058597 6.460665 -0.185468 -16.710817 -17.857653 -9.848447 -124.990006 -57.256024 161.687180 -3.821575 2.690457 -17.574351 -1.080777 9.151792 0.951171 17.365647 -8.088936 0.415237 102.149728 -59.556304 -149.061598 -2.350376 2.774548 -7.913783 -15.367866 -63.460475 8.556622 -31.974806 73.611973 -32.365979 -2.183450 -7.510013 -2.364360 -0.458806 0.840068 -0.161773 6.362185 -66.844993 10.833277 42.802110 63.438946 34.948115 -18.933108 -9.710185 5.901332 -0.085898 -0.860182 0.023405
-108.716477 57.253002 -4.982807 161.518094 -8.753187 -0.099822 3.653530 6.208755 0.795174 0.152749 0.272267 -0.003020 0.267835 0.477544 -0.004805 3.365201 5.983536 0.101243 -1.756671 19.063487 -3.859133 -1.940381 -0.440048 -6.500673 -0.017524 6.554659 -0.179824 -16.916503 -17.794253 -9.245579 -124.336010 -56.878751 161.452450 -4.034764 2.459323 -17.313141 -1.107443 9.185205 0.765265 16.882801 -8.142748 -0.176051 100.621797 -59.456381 -147.903522 -2.162151 2.591307 -8.193316 -15.326182 -63.411018 8.503873 -31.942895 73.594032 -32.374781 -2.174060 -7.498408 -2.324303 -0.490186 0.852750 -0.174596 6.393804 -66.794015 10.787419 42.789650 63.421513 34.926840 -18.959222 -9.701913 5.906649 -0.089101 -0.850035 0.036680
-108.741989 57.249930 -4.966695 161.590322 -8.792192 -0.088893 3.565615 6.170507 0.782282 0.150902 0.271704 -0.002745 0.264614 0.476575 -0.004375 3.332956 5.985120 0.105102 -1.779430 19.087203 -3.874977 -2.064727 -0.387526 -6.522121 0.087628 6.676995 -0.086598 -17.073333 -17.798097 -8.781400 -123.767008 -56.560178 161.207566 -4.229633 2.244946 -17.088999 -1.169665 9.203241 0.587883 16.367886 -8.250013 -0.618459 99.168582 -59.343015 -146.767861 -1.969448 2.404104 -8.406605 -15.286585 -63.389673 8.417338 -31.951680 73.573844 -32.417063 -2.195789 -7.480268 -2.301210 -0.490020 0.857641 -0.165572 6.426205 -66.756650 10.690036 42.764784 63.384080 34.865897 -18.955841 -9.657680 5.949136 -0.102480 -0.861891 0.024900
-108.761346 57.249087 -4.954689 161.616463 -8.873157 -0.090443 3.527402 6.172439 0.787999 0.149274 0.271008 -0.002793 0.261820 0.475414 -0.004456 3.305353 5.984003 0.102840 -1.815003 19.092350 -3.884822 -2.106062 -0.341202 -6.540552 0.188449 6.777993 -0.020144 -17.143386 -17.803357 -8.382957 -123.277048 -56.286420 160.937981 -4.406276 2.048719 -16.900002 -1.277559 9.209778 0.420869 15.819391 -8.418673 -0.895802 97.836343 -59.211934 -145.685304 -1.773111 2.211834 -8.545736 -15.204006 -63.328429 8.354937 -32.027244 73.545516 -32.524155 -2.246346 -7.433569 -2.263633 -0.461419 0.837412 -0.157343 6.455445 -66.679710 10.648182 42.735244 63.363600 34.832312 -18.978565 -9.644173 5.967330 -0.080242 -0.862515 0.020058
-108.780961 57.249062 -4.938091 161.632816 -8.931020 -0.086802 3.499831 6.150814 0.784541 0.147721 0.270164 -0.003049 0.262412 0.494650 -0.002762 3.286474 5.982029 0.098817 -1.840836 19.086014 -3.895862 -2.129168 -0.313918 -6.547770 0.293690 6.852669 0.058183 -17.132715 -17.850255 -8.103531 -122.862211 -56.051396 160.635038 -4.565805 1.865665 -16.746170 -1.442004 9.188098 0.263221 15.244241 -8.653979 -1.004009 96.653276 -59.065583 -144.676629 -1.571031 2.016220 -8.619802 -15.156359 -63.282014 8.314108 -32.018606 73.519750 -32.555545 -2.250110 -7.406163 -2.232527 -0.472757 0.839962 -0.155766 6.505892 -66.620081 10.595879 42.692728 63.338029 34.781682 -19.001045 -9.638227 5.974625 -0.048971 -0.864425 0.018762
-108.797948 57.250564 -4.920142 161.645872 -8.987486 -0.086445 3.474714 6.126559 0.779977 0.146093 0.269270 -0.003421 0.271792 0.555613 0.002728 3.245025 5.917043 0.078905 -1.847124 19.095752 -3.900133 -2.139810 -0.295937 -6.553546 0.435462 6.941979 0.156746 -17.065193 -17.953438 -7.941776 -122.506955 -55.863932 160.294194 -4.716032 1.685953 -16.614311 -1.630675 9.181299 0.126202 14.648607 -8.954718 -0.944224 95.639872 -58.906020 -143.754396 -1.374662 1.829246 -8.652198 -15.119223 -63.233148 8.283282 -31.991496 73.492662 -32.565998 -2.244312 -7.380951 -2.212821 -0.493039 0.833708 -0.168688 6.556447 -66.561281 10.551382 42.635828 63.314815 34.718287 -19.012079 -9.640362 5.970345 -0.037298 -0.853883 0.033150
-108.809357 57.256101 -4.916354 161.656610 -9.135204 -0.074549 3.447874 6.193859 0.768443 0.144295 0.268510 -0.003882 0.258818 0.492514 -0.004540 3.212687 5.956243 0.070333 -1.834642 19.120137 -3.901216 -2.138068 -0.290072 -6.564128 0.613754 7.042899 0.267845 -16.967147 -18.126180 -7.887055 -122.186584 -55.735519 159.909730 -4.862036 1.501932 -16.482687 -1.835408 9.184260 0.006253 14.038238 -9.310332 -0.726850 94.829571 -58.733941 -142.944191 -1.208809 1.665620 -8.674920 -15.021813 -63.094578 8.170465 -31.965350 73.481054 -32.559621 -2.254843 -7.365218 -2.206729 -0.491634 0.826835 -0.165666 6.676463 -66.385650 10.463496 42.490445 63.296222 34.592597 -19.074753 -9.700632 5.961799 0.012911 -0.791836 0.054778
-108.819596 57.262631 -4.908733 161.661401 -9.260605 -0.057154 3.423384 6.239647 0.753482 0.148488 0.288475 -0.004443 0.243289 0.449666 -0.007317 3.180597 5.979577 0.059875 -1.828342 19.116853 -3.910934 -2.123395 -0.295797 -6.583972 0.797843 7.110420 0.370349 -16.846401 -18.372071 -7.930653 -121.888085 -55.671854 159.476017 -5.008233 1.308403 -16.332370 -2.074065 9.147882 -0.106636 13.438871 -9.706833 -0.381855 94.233229 -58.566534 -142.273176 -1.091784 1.531179 -8.723326 -14.911759 -62.986534 8.066740 -31.996775 73.465103 -32.608832 -2.282570 -7.333997 -2.203848 -0.474685 0.803690 -0.158808 6.747214 -66.233840 10.415523 42.386974 63.278788 34.485546 -19.116490 -9.741369 5.960650 0.038135 -0.753182 0.064185
-108.829956 57.269265 -4.893519 161.678503 -9.338019 -0.035124 3.381678 6.238149 0.730876 0.165763 0.349091 -0.005044 0.219567 0.387580 -0.008251 3.136356 5.984042 0.046402 -1.814976 19.109127 -3.925018 -2.094241 -0.309349 -6.614046 0.996356 7.164273 0.466264 -16.695264 -18.685616 -8.071909 -121.611399 -55.671221 158.983723 -5.157016 1.105703 -16.151356 -2.328679 9.088897 -0.207641 12.876716 -10.136791 0.055000 93.840455 -58.430521 -141.746241 -1.027343 1.428510 -8.832496 -14.829288 -62.925322 7.980842 -31.984410 73.443617 -32.625509 -2.297680 -7.292094 -2.180193 -0.477877 0.778344 -0.171014 6.823309 -66.120898 10.356278 42.254409 63.245136 34.330375 -19.174216 -9.765050 5.966897 0.068313 -0.712960 0.074162
-108.837269 57.276377 -4.874094 161.717349 -9.391707 -0.020567 3.313470 6.212182 0.711487 0.144417 0.286960 -0.005291 0.233977 0.448554 -0.008923 3.087410 5.990911 0.035620 -1.795637 19.098020 -3.943193 -2.052734 -0.328952 -6.653419 1.206242 7.199477 0.554788 -16.499935 -19.057100 -8.309465 -121.357324 -55.729136 158.423277 -5.302517 0.901308 -15.938259 -2.594497 9.004178 -0.298817 12.356242 -10.599973 0.561862 93.639770 -58.334544 -141.348339 -1.014108 1.361521 -9.020933 -14.782957 -62.899089 7.925743 -32.050554 73.426368 -32.719333 -2.325119 -7.219520 -2.161310 -0.462012 0.721869 -0.171420 6.853797 -66.026145 10.327287 42.117061 63.195344 34.148384 -19.233623 -9.771993 5.980520 0.091872 -0.668392 0.083669
-108.838043 57.285038 -4.858205 161.689228 -9.472079 -0.004097 3.307572 6.210439 0.703126 0.134784 0.266616 -0.005509 0.236482 0.468103 -0.009228 3.036196 5.999680 0.028246 -1.771376 19.084786 -3.963519 -2.001528 -0.352264 -6.698307 1.424905 7.214920 0.637635 -16.257519 -19.481573 -8.634901 -121.115855 -55.841894 157.785621 -5.436795 0.707668 -15.706520 -2.864481 8.896043 -0.381502 11.874820 -11.098349 1.123786 93.603643 -58.272297 -141.058170 -1.054110 1.330030 -9.283038 -14.686250 -62.834732 7.866985 -32.028775 73.408463 -32.714728 -2.318904 -7.164273 -2.161853 -0.479477 0.688096 -0.170853 6.894515 -65.903900 10.358362 41.985707 63.175770 33.981738 -19.284863 -9.814082 5.977659 0.130314 -0.603811 0.103753
